<svg width="72" height="72" xmlns="http://www.w3.org/2000/svg" xmlns:xlink="http://www.w3.org/1999/xlink" xml:space="preserve" overflow="hidden"><g transform="translate(-263 -41)"><path d="M320 98 282.5 98 282.5 56 320 56 320 98ZM278 51.5 278 56 277.025 56C275.825 56.075 275 57.05 275 58.25 274.925 59.45 275.825 60.425 277.025 60.5L278 60.5 278 63.5 277.025 63.5C275.75 63.5 274.775 64.475 274.775 65.75 274.775 67.025 275.75 68 277.025 68L278 68 278 71 277.025 71C275.75 71 274.775 71.975 274.775 73.25 274.775 74.525 275.75 75.5 277.025 75.5L278 75.5 278 78.5 277.025 78.5C275.75 78.5 274.775 79.475 274.775 80.75 274.775 82.025 275.75 83 277.025 83L278 83 278 86 277.025 86C275.75 86 274.775 86.975 274.775 88.25 274.775 89.525 275.75 90.5 277.025 90.5L278 90.5 278 93.5 277.025 93.5C275.75 93.5 274.775 94.475 274.775 95.75 274.775 97.025 275.75 98 277.025 98L278 98 278 102.5 324.5 102.5 324.5 51.5 278 51.5Z"/><path d="M293 84.5C294.65 84.5 296 85.85 296 87.5 296 89.15 294.65 90.5 293 90.5 291.35 90.5 290 89.15 290 87.5 290 85.85 291.35 84.5 293 84.5ZM293 93.5C296 93.5 298.55 91.25 298.925 88.25 299.3 85.25 297.425 82.475 294.5 81.725L294.5 80C294.5 79.175 295.175 78.5 296 78.5L306.5 78.5C308.975 78.5 311 76.475 311 74L311 65.6 312.95 67.55C313.55 68.15 314.45 68.15 315.05 67.55 315.65 66.95 315.65 66.05 315.05 65.45L310.55 60.95C310.25 60.65 309.875 60.5 309.5 60.5 309.125 60.5 308.75 60.65 308.45 60.95L303.95 65.45C303.35 66.05 303.35 66.95 303.95 67.55 304.55 68.15 305.45 68.15 306.05 67.55L308 65.6 308 74C308 74.825 307.325 75.5 306.5 75.5L296 75.5C293.525 75.5 291.5 77.525 291.5 80L291.5 81.725C288.575 82.475 286.7 85.325 287.075 88.25 287.45 91.25 290 93.5 293 93.5Z"/><path d="M315.05 81.95C314.75 81.65 314.375 81.5 314 81.5 313.625 81.5 313.25 81.65 312.95 81.95L309.5 85.4 306.05 81.95C305.45 81.35 304.55 81.35 303.95 81.95 303.35 82.55 303.35 83.45 303.95 84.05L307.4 87.5 303.95 90.95C303.35 91.55 303.35 92.45 303.95 93.05 304.55 93.65 305.45 93.65 306.05 93.05L309.5 89.6 312.95 93.05C313.55 93.65 314.45 93.65 315.05 93.05 315.65 92.45 315.65 91.55 315.05 90.95L311.6 87.5 315.05 84.05C315.65 83.45 315.65 82.55 315.05 81.95Z"/><path d="M287.45 72.05C287.75 72.35 288.125 72.5 288.5 72.5 288.875 72.5 289.25 72.35 289.55 72.05L293 68.6 296.45 72.05C297.05 72.65 297.95 72.65 298.55 72.05 299.15 71.45 299.15 70.55 298.55 69.95L295.1 66.5 298.55 63.05C299.15 62.45 299.15 61.55 298.55 60.95 297.95 60.35 297.05 60.35 296.45 60.95L293 64.4 289.55 60.95C288.95 60.35 288.05 60.35 287.45 60.95 286.85 61.55 286.85 62.45 287.45 63.05L290.9 66.5 287.45 69.95C286.85 70.55 286.85 71.45 287.45 72.05Z"/></g></svg>