<svg width="72" height="72" xmlns="http://www.w3.org/2000/svg" xmlns:xlink="http://www.w3.org/1999/xlink" xml:space="preserve" overflow="hidden"><g transform="translate(-335 -33)"><path d="M350 72 371 72 371 75 350 75Z"/><path d="M350 78 371 78 371 81 350 81Z"/><path d="M353.3 64.725C353.375 64.725 361.325 61.875 371 61.875 380.675 61.875 388.625 64.725 388.7 64.725 389 64.8 389.225 64.875 389.525 64.875 390.575 64.875 391.55 64.2 391.85 63.075 392.3 61.725 391.625 60.225 390.275 59.775 389.975 59.625 381.5 56.625 371 56.625 360.5 56.625 352.025 59.625 351.65 59.775 350.375 60.225 349.625 61.725 350.075 63.075 350.6 64.5 352.025 65.175 353.3 64.725"/><path d="M341 90 401 90 401 48 341 48 341 90ZM396.5 85.5 345.5 85.5 345.5 52.5 396.5 52.5 396.5 85.5Z"/><path d="M390.125 74.475 390.425 72.45 388.475 72.825 387.725 70.875 386.225 72.225 384.65 70.875 383.975 72.825 381.95 72.45 382.325 74.475 380.375 75.15 381.725 76.725 380.375 78.225 382.325 78.975 381.95 80.925 383.975 80.625 384.65 82.5 386.225 81.225 387.725 82.5 388.475 80.625 390.425 80.925 390.125 78.975 392 78.225 390.725 76.725 392 75.15Z"/></g></svg>