<svg width="72" height="72" xmlns="http://www.w3.org/2000/svg" xmlns:xlink="http://www.w3.org/1999/xlink" xml:space="preserve" overflow="hidden"><g transform="translate(-200 -45)"><path d="M234.208 96.105C234.208 97.9855 232.683 99.51 230.803 99.51 228.922 99.51 227.397 97.9855 227.397 96.105 227.397 94.2245 228.922 92.7 230.803 92.7 232.683 92.7 234.208 94.2245 234.208 96.105Z"/><path d="M237.5 107.25 237.5 103.845C237.489 103.314 237.241 102.817 236.825 102.488 235.847 101.733 234.727 101.183 233.533 100.868 232.631 100.591 231.693 100.449 230.75 100.448 229.808 100.462 228.872 100.603 227.967 100.868 226.786 101.217 225.673 101.765 224.675 102.488 224.259 102.817 224.011 103.314 224 103.845L224 107.25Z"/><path d="M249.103 96.105C249.103 97.9855 247.578 99.51 245.698 99.51 243.817 99.51 242.292 97.9855 242.292 96.105 242.292 94.2245 243.817 92.7 245.698 92.7 247.578 92.7 249.103 94.2245 249.103 96.105Z"/><path d="M252.5 107.25 252.5 103.845C252.489 103.314 252.241 102.817 251.825 102.488 250.847 101.733 249.727 101.183 248.533 100.868 247.631 100.591 246.693 100.449 245.75 100.448 244.808 100.462 243.872 100.603 242.967 100.868 241.786 101.217 240.673 101.765 239.675 102.488 239.259 102.817 239.011 103.314 239 103.845L239 107.25Z"/><path d="M264.103 96.105C264.103 97.9855 262.578 99.51 260.698 99.51 258.817 99.51 257.293 97.9855 257.293 96.105 257.293 94.2245 258.817 92.7 260.698 92.7 262.578 92.7 264.103 94.2245 264.103 96.105Z"/><path d="M267.5 107.25 267.5 103.845C267.489 103.314 267.241 102.817 266.825 102.488 265.847 101.733 264.727 101.183 263.533 100.868 262.631 100.591 261.693 100.449 260.75 100.448 259.808 100.462 258.872 100.603 257.967 100.868 256.786 101.217 255.673 101.765 254.675 102.488 254.259 102.817 254.011 103.314 254 103.845L254 107.25Z"/><path d="M220.565 64.62C220.565 67.0804 218.57 69.075 216.11 69.075 213.65 69.075 211.655 67.0804 211.655 64.62 211.655 62.1596 213.65 60.165 216.11 60.165 218.57 60.165 220.565 62.1596 220.565 64.62Z"/><path d="M242.383 62.9025C241.942 62.4679 241.233 62.4679 240.792 62.9025L231.103 72.5925C230.328 72.3739 229.496 72.5855 228.92 73.1475 228.762 73.305 225.965 77.88 225.965 77.88L225.125 74.3025C225.014 73.8412 224.784 73.4171 224.458 73.0725 223.075 71.9551 221.484 71.1239 219.777 70.6275 218.571 70.3694 217.343 70.2213 216.11 70.185 214.866 70.2042 213.63 70.3909 212.435 70.74 210.713 71.1915 209.115 72.0275 207.762 73.185 207.433 73.5275 207.203 73.9524 207.095 74.415 207.095 74.415 203.863 87.99 203.863 88.215 203.863 89.4577 204.87 90.465 206.113 90.465 207.108 90.4394 207.969 89.762 208.227 88.8L210.568 79.1175 210.568 110.25 215 110.25 215 90.2175 217.25 90.2175 217.25 110.25 221.675 110.25 221.675 78.975 222.5 82.5C222.557 82.7437 222.719 82.9496 222.943 83.0625 223.805 83.7244 224.856 84.0948 225.943 84.12 226.65 84.2191 227.351 83.9006 227.742 83.3025L232.318 75.8025C232.61 75.3414 232.72 74.7878 232.625 74.25L242.375 64.5C242.817 64.0603 242.82 63.3464 242.383 62.9025Z"/><path d="M257.75 52.5 221 52.5C219.343 52.5 218 53.8432 218 55.5L218 58.2C219.147 58.5121 220.185 59.1351 221 60L221 55.5 257.75 55.5 257.75 80.25 232.152 80.25 230.322 83.25 257.75 83.25C259.407 83.25 260.75 81.9068 260.75 80.25L260.75 55.5C260.75 53.8432 259.407 52.5 257.75 52.5Z"/></g></svg>